<svg xmlns="http://www.w3.org/2000/svg" width="48" height="48" viewBox="0 0 48 48" role="img" aria-labelledby="title"><title id="title">演示类文件</title><path d="M13.5 3.5h16l9 9v29a3 3 0 0 1-3 3h-22a3 3 0 0 1-3-3v-35a3 3 0 0 1 3-3Z" fill="#FFF7ED" stroke="#EA580C" stroke-width="1.8" stroke-linejoin="round"/><path d="M29.5 3.5v7a2 2 0 0 0 2 2h7" fill="none" stroke="#EA580C" stroke-width="1.8" stroke-linecap="round" stroke-linejoin="round"/><g transform="translate(24 22) scale(1.28) translate(-24 -22)" fill="none" stroke="#EA580C" stroke-width="1.65" stroke-linecap="round" stroke-linejoin="round"><rect x="18" y="15" width="12" height="8" rx="1.5"/><path d="M24 23v3M21 26h6M21 20l2-2 2 2 2-3"/></g><path d="M18 34.5h12" fill="none" stroke="#EA580C" stroke-width="2.4" stroke-linecap="round" opacity=".28"/></svg>
